{"title":"Captain America The Winter Soldier 2014 NEW HDCAM R6 XviD-NoGrou","uid":9996702,"size":1415431150,"categoryP":"video","categoryS":"movies","magnet":"?xt=urn:btih:11c6f0ca361cba79a693889d99f4f1c090b52eec&amp;dn=Captain+America+The+Winter+Soldier+2014+NEW+HDCAM+R6+XviD-NoGrou&amp;tr=udp%3A%2F%2Ftracker.openbittorrent.com%3A80&amp;tr=udp%3A%2F%2Fopen.demonii.com%3A1337&amp;tr=udp%3A%2F%2Ftracker.coppersurfer.tk%3A6969&amp;tr=udp%3A%2F%2Fexodus.desync.com%3A6969","seeders":9,"leechers":0,"uploader":"Xetron","files":2,"time":1397932405,"description":"Steve Rogers struggles to embrace his role in the modern world and battles a new threat from old history: the Soviet agent known as the Winter Soldier.\n\nnote: small cut in the Chinese subtitles\n\nGeneral\nFormat                                   : AVI\nFormat/Info                              : Audio Video Interleave\nFile size                                : 1.27 GiB\nDuration                                 : 2h 15mn\nOverall bit rate                         : 1 347 Kbps\nWriting application                      : VirtualDubMod 1.5.10.2 (build 2542/release)\nWriting library                          : VirtualDubMod build 2542/release\n\nVideo\nID                                       : 0\nFormat                                   : MPEG-4 Visual\nFormat profile                           : Advanced Simple@L5\nFormat settings, BVOP                    : 1\nFormat settings, QPel                    : No\nFormat settings, GMC                     : No warppoints\nFormat settings, Matrix                  : Default (H.263)\nMuxing mode                              : Packed bitstream\nCodec ID                                 : XVID\nCodec ID/Hint                            : XviD\nDuration                                 : 2h 15mn\nBit rate                                 : 1 144 Kbps\nWidth                                    : 720 pixels\nHeight                                   : 304 pixels\nDisplay aspect ratio                     : 2.35:1\nFrame rate                               : 29.970 fps\nColor space                              : YUV\nChroma subsampling                       : 4:2:0\nBit depth                                : 8 bits\nScan type                                : Progressive\nCompression mode                         : Lossy\nBits/(Pixel*Frame)                       : 0.174\nStream size                              : 1.08 GiB (85%)\nWriting library                          : XviD 64\n\nAudio\nID                                       : 1\nFormat                                   : MPEG Audio\nFormat version                           : Version 1\nFormat profile                           : Layer 3\nMode                                     : Joint stereo\nMode extension                           : MS Stereo\nCodec ID                                 : 55\nCodec ID/Hint                            : MP3\nDuration                                 : 2h 15mn\nBit rate mode                            : Constant\nBit rate                                 : 192 Kbps\nChannel count                            : 2 channels\nSampling rate                            : 48.0 KHz\nCompression mode                         : Lossy\nStream size                              : 186 MiB (14%)\nAlignment                                : Aligned on interleaves\nInterleave, duration                     : 33 ms (1.00 video frame)\nInterleave, preload duration             : 504 ms\n\nScreens - &lt;a href=&quot;\nhttp://s28.postimg.org/hf1ljfl8d/frame0.jpg&quot; rel=&quot;nofollow&quot; target=&quot;_NEW&quot;&gt;\nhttp://s28.postimg.org/hf1ljfl8d/frame0.jpg&lt;/a&gt; &lt;a href=&quot;\nhttp://s28.postimg.org/m27nl78l9/frame1.jpg&quot; rel=&quot;nofollow&quot; target=&quot;_NEW&quot;&gt;\nhttp://s28.postimg.org/m27nl78l9/frame1.jpg&lt;/a&gt; &lt;a href=&quot;\nhttp://s28.postimg.org/ua9l670hp/frame2.jpg&quot; rel=&quot;nofollow&quot; target=&quot;_NEW&quot;&gt;\nhttp://s28.postimg.org/ua9l670hp/frame2.jpg&lt;/a&gt;","torrent":{"xt":"urn:btih:11c6f0ca361cba79a693889d99f4f1c090b52eec","amp;dn":"Captain+America+The+Winter+Soldier+2014+NEW+HDCAM+R6+XviD-NoGrou","amp;tr":["udp%3A%2F%2Ftracker.openbittorrent.com%3A80","udp%3A%2F%2Fopen.demonii.com%3A1337","udp%3A%2F%2Ftracker.coppersurfer.tk%3A6969","udp%3A%2F%2Fexodus.desync.com%3A6969"],"infoHash":"11c6f0ca361cba79a693889d99f4f1c090b52eec","infoHashBuffer":{"type":"Buffer","data":[17,198,240,202,54,28,186,121,166,147,136,157,153,244,241,192,144,181,46,236]},"announce":[],"urlList":[]}}